<svg xmlns="http://www.w3.org/2000/svg" viewBox="0 0 1890 1890"><filter id="c"><feGaussianBlur stdDeviation="55" /></filter><path fill="#d9dce6" d="M0 0h1890v1890H0z"/><g filter='url(#c)' fill-opacity='.5'><path fill="#071a5c" fill-opacity=".5" d="M1428.6 1783L1148 1472.8l236.3-480z"/><ellipse fill="#4f5d8c" fill-opacity=".5" rx="1" ry="1" transform="matrix(32.44292 -353.05345 152.0891 13.97583 1340.8 490.2)"/><ellipse fill="#707ca1" fill-opacity=".5" rx="1" ry="1" transform="matrix(-216.12107 -87.31858 143.21395 -354.46696 553.5 1371)"/><path fill="#001" fill-opacity=".5" d="M505.7 158.7h73.9v590.7h-73.9z"/><ellipse fill="#004" fill-opacity=".5" rx="1" ry="1" transform="matrix(54.78006 3.69651 -17.01813 252.19843 786.4 599.1)"/><path fill="#000013" fill-opacity=".5" d="M269.5 402.4h73.8v428.2h-73.8z"/><path fill="#00003f" fill-opacity=".5" d="M1631.3 803.5l93.5-79-266.2-253.2 23 153.3z"/><ellipse fill="#00002d" fill-opacity=".5" rx="1" ry="1" transform="matrix(-98.2397 -90.65298 37.74521 -40.9041 1596.3 1461)"/></g></svg>